<svg xmlns="http://www.w3.org/2000/svg" xmlns:xlink="http://www.w3.org/1999/xlink" width="2000" zoomAndPan="magnify" viewBox="0 0 1500 1499.999933" height="2000" preserveAspectRatio="xMidYMid meet" version="1.0"><defs><g/><clipPath id="21fab40b2e"><path d="M 557 345.59375 L 712 345.59375 L 712 642 L 557 642 Z M 557 345.59375 " clip-rule="nonzero"/></clipPath><clipPath id="9bb2ccb49e"><path d="M 512 466 L 929.480469 466 L 929.480469 837.59375 L 512 837.59375 Z M 512 466 " clip-rule="nonzero"/></clipPath><clipPath id="13c035ae8b"><path d="M 582 396 L 660 396 L 660 474 L 582 474 Z M 582 396 " clip-rule="nonzero"/></clipPath><clipPath id="8e7e440c0b"><path d="M 623.222656 396.792969 L 659.378906 432.953125 L 618.378906 473.949219 L 582.222656 437.792969 Z M 623.222656 396.792969 " clip-rule="nonzero"/></clipPath><clipPath id="aab84a1581"><path d="M 0 0.71875 L 77.519531 0.71875 L 77.519531 78 L 0 78 Z M 0 0.71875 " clip-rule="nonzero"/></clipPath><clipPath id="2b4aa6417f"><path d="M 41.222656 0.792969 L 77.378906 36.953125 L 36.378906 77.949219 L 0.222656 41.792969 Z M 41.222656 0.792969 " clip-rule="nonzero"/></clipPath><clipPath id="2565b8e076"><rect x="0" width="78" y="0" height="78"/></clipPath><clipPath id="92ff249312"><rect x="0" width="525" y="0" height="187"/></clipPath><clipPath id="14b6dfc6b3"><rect x="0" width="289" y="0" height="113"/></clipPath><clipPath id="abda8531f5"><path d="M 734 358 L 812 358 L 812 436 L 734 436 Z M 734 358 " clip-rule="nonzero"/></clipPath><clipPath id="ea88154af1"><path d="M 775.113281 358.214844 L 811.269531 394.371094 L 770.273438 435.371094 L 734.113281 399.214844 Z M 775.113281 358.214844 " clip-rule="nonzero"/></clipPath><clipPath id="b1202406e1"><path d="M 0 0.078125 L 77.441406 0.078125 L 77.441406 77.601562 L 0 77.601562 Z M 0 0.078125 " clip-rule="nonzero"/></clipPath><clipPath id="77fb0a87fc"><path d="M 41.113281 0.214844 L 77.269531 36.371094 L 36.273438 77.371094 L 0.113281 41.214844 Z M 41.113281 0.214844 " clip-rule="nonzero"/></clipPath><clipPath id="12a3af724d"><rect x="0" width="78" y="0" height="78"/></clipPath><clipPath id="dace71f17e"><path d="M 842 415 L 913 415 L 913 489 L 842 489 Z M 842 415 " clip-rule="nonzero"/></clipPath><clipPath id="7da6e3d2ac"><path d="M 865.011719 415.710938 L 912.265625 435.253906 L 890.105469 488.832031 L 842.851562 469.289062 Z M 865.011719 415.710938 " clip-rule="nonzero"/></clipPath><clipPath id="27dc9b058d"><path d="M 0.640625 0.679688 L 70.480469 0.679688 L 70.480469 73.878906 L 0.640625 73.878906 Z M 0.640625 0.679688 " clip-rule="nonzero"/></clipPath><clipPath id="fc0b7f66c7"><path d="M 23.011719 0.710938 L 70.265625 20.253906 L 48.105469 73.832031 L 0.851562 54.289062 Z M 23.011719 0.710938 " clip-rule="nonzero"/></clipPath><clipPath id="5adcb9d4c4"><rect x="0" width="71" y="0" height="74"/></clipPath><clipPath id="0118bfb533"><rect x="0" width="82" y="0" height="71"/></clipPath><clipPath id="d68d417e2f"><rect x="0" width="80" y="0" height="43"/></clipPath><clipPath id="dc0714e1a7"><rect x="0" width="80" y="0" height="54"/></clipPath></defs><path fill="#cdcde4" d="M 840.09375 400.472656 L 839.214844 451.902344 L 839.027344 463.050781 L 828.621094 460.464844 C 807.003906 455.132812 784.746094 454.632812 763.316406 458.722656 C 724.738281 466.074219 684.078125 487.707031 668.917969 527.269531 L 667.304688 531.691406 C 694.421875 504.574219 728.957031 486.65625 766.136719 480.402344 C 790.859375 476.246094 815.90625 477.390625 839.78125 483.457031 C 860.113281 488.632812 879.597656 497.363281 897.324219 509.449219 L 928.347656 427.386719 C 914.753906 418.796875 900.257812 412.199219 885.300781 407.699219 C 870.566406 403.261719 855.347656 400.847656 840.09375 400.472656 " fill-opacity="1" fill-rule="nonzero"/><path fill="#cdcde4" d="M 762.972656 354.167969 C 743.363281 358.242188 724.519531 365.847656 707.339844 376.648438 C 716.714844 392.464844 727.9375 408.359375 736.183594 424.769531 C 733.863281 425.726562 733.515625 425.257812 726.339844 428.609375 C 674.609375 445.917969 621.972656 491.3125 626.5 552.664062 C 626.628906 554.40625 626.785156 556.113281 626.957031 557.824219 C 631.15625 545.878906 636.550781 534.464844 643.007812 523.761719 C 655.800781 502.519531 672.839844 483.992188 693.230469 469.617188 C 713.59375 455.257812 736.464844 445.632812 760.195312 441.121094 C 780.480469 437.246094 801.46875 437.105469 822.113281 440.851562 L 823.621094 352.882812 C 803.195312 349.542969 782.675781 350.078125 762.972656 354.167969 " fill-opacity="1" fill-rule="nonzero"/><g clip-path="url(#21fab40b2e)"><path fill="#cdcde4" d="M 597.265625 641.261719 C 591.71875 623.738281 590.589844 591.996094 594.226562 572.101562 C 599.601562 535.75 612.550781 502.878906 632.441406 475.855469 C 652.113281 449.144531 678.527344 428.203125 711.085938 415.238281 C 702.636719 403.214844 688.765625 379.984375 669.53125 345.59375 C 640.015625 358.132812 614.792969 378.371094 595.839844 403.640625 C 575.476562 430.789062 562.359375 463.816406 558.894531 499.433594 C 554.113281 548.589844 567.34375 603 597.265625 641.261719 " fill-opacity="1" fill-rule="nonzero"/></g><g clip-path="url(#9bb2ccb49e)"><path fill="#14162c" d="M 623.664062 700.296875 C 562.167969 652.535156 530.601562 575.269531 538.234375 497.988281 C 537.761719 487.09375 538.53125 476.4375 540.679688 466.167969 C 520.019531 506.390625 509.59375 552.917969 512.777344 601.761719 C 513.011719 605.429688 513.324219 609.082031 513.71875 612.703125 C 518.042969 653.316406 531.507812 690.765625 551.824219 722.960938 C 551.824219 722.976562 551.839844 722.992188 551.855469 723.007812 C 590.464844 782.640625 652.945312 821.78125 718.828125 834.476562 C 735.992188 837.171875 753.691406 837.988281 771.734375 836.71875 C 834.105469 832.34375 889.378906 803.910156 929.742188 760.742188 L 871.617188 707.992188 C 863.199219 713.746094 854.5 718.839844 845.582031 723.246094 C 782.1875 763.453125 680.753906 744.65625 623.664062 700.296875 " fill-opacity="1" fill-rule="evenodd"/></g><path fill="#14162c" d="M 745.601562 655.308594 C 747.390625 654.320312 748.707031 653.707031 750.933594 654.148438 L 751.859375 665.136719 C 748.109375 664.539062 745.742188 659.367188 745.601562 655.308594 M 788.398438 609.035156 C 787.707031 609.394531 787.191406 609.847656 786.8125 610.617188 L 786.8125 610.742188 C 785.214844 610.742188 783.664062 610.460938 782.753906 609.550781 C 784.242188 609.207031 785.355469 609.535156 786.328125 609.347656 C 787.285156 609.160156 787.941406 609.082031 788.398438 609.035156 Z M 788.066406 605.664062 C 792.300781 605.242188 797.457031 604.816406 798.148438 604.957031 C 795.417969 606.636719 794.574219 606.761719 791.078125 608.015625 C 790.433594 608.25 789.855469 608.421875 789.335938 608.625 C 789.351562 608.359375 789.414062 607.90625 789.839844 607.089844 C 789.257812 606.355469 788.679688 605.914062 788.066406 605.664062 Z M 733.832031 602.433594 C 733.46875 602.308594 733.109375 602.152344 732.78125 601.996094 C 736.023438 600.445312 742.234375 601.636719 749.695312 603.234375 C 744.441406 602.875 739.097656 602.574219 733.832031 602.433594 Z M 789.886719 595.460938 C 777.046875 598.09375 767.46875 596.855469 758.910156 594.738281 C 766.734375 596.242188 775.105469 597.292969 782.503906 595.898438 C 783.617188 595.695312 789.507812 595.082031 793.742188 594.753906 C 792.425781 594.957031 791.125 595.191406 789.886719 595.460938 Z M 774.429688 580.628906 C 769.304688 583.765625 759.679688 582.652344 752.546875 578.8125 C 757.046875 580.253906 761.796875 581.429688 767.40625 581.273438 C 769.757812 581.210938 772.09375 580.976562 774.429688 580.628906 Z M 774.289062 518.664062 C 771.890625 517.503906 769.835938 515.9375 767.800781 514.714844 C 768.613281 515.042969 769.445312 515.40625 770.292969 515.796875 C 772.0625 516.613281 771.953125 516.722656 773.550781 517.285156 C 775.277344 517.898438 775.542969 517.710938 776.90625 518.710938 Z M 769.007812 634.207031 C 773.929688 634.679688 778.835938 634.695312 783.378906 633.878906 C 785.152344 633.566406 798.585938 632.3125 799.761719 632.53125 C 796.894531 634.207031 796 634.335938 792.347656 635.589844 C 790.464844 636.230469 789.132812 636.527344 788.300781 637.546875 C 786.265625 638.035156 784.101562 638.050781 781.21875 637.15625 C 776.84375 635.808594 772.894531 634.726562 769.007812 634.207031 Z M 753.707031 635.699219 C 750.242188 630.917969 737.40625 632.375 731.261719 629.570312 C 737.074219 626.917969 752 632.265625 767.046875 634.019531 C 762.765625 633.675781 758.488281 634.097656 753.707031 635.699219 Z M 680.675781 626.183594 C 679.78125 628.910156 681.019531 630.570312 683.324219 631.542969 L 682.886719 631.621094 C 678.011719 632.546875 669.828125 633.519531 670.109375 639.351562 C 671.550781 640.273438 673.683594 640.777344 676.222656 640.996094 C 670.878906 643.035156 664.84375 646.71875 664.984375 652.09375 C 675.503906 654.851562 686.351562 648.503906 695.285156 651.105469 L 683.324219 654.460938 C 683.449219 656.8125 682.273438 657.878906 691.601562 658.300781 C 695.660156 658.488281 699.691406 658.441406 703.765625 658.441406 C 706.242188 659.492188 704.15625 658.457031 705.316406 660.277344 C 708.265625 664.933594 713.125 664.617188 719.816406 663.410156 C 730.882812 661.421875 731.558594 658.410156 735.570312 657.078125 C 742.46875 664.523438 747.765625 682.535156 740.789062 693.554688 C 733.171875 705.5625 714.410156 700.96875 711.132812 710.359375 C 716.398438 710.28125 716.855469 709.074219 721.148438 708.667969 C 724.722656 708.335938 728.25 708.335938 731.824219 708.367188 C 743.738281 708.480469 742.203125 703.382812 748.140625 702.207031 C 746.984375 706.347656 746.386719 704.8125 745.414062 708.445312 C 752.34375 709.042969 753.894531 704.105469 758.300781 704.042969 C 762.359375 703.996094 764.398438 708.164062 771.46875 707.804688 L 772.691406 703.855469 C 776.058594 704.402344 777.0625 707.019531 781.734375 707.632812 L 806.34375 709.136719 C 808.710938 709.71875 812.582031 711.535156 816.03125 711.847656 C 814.714844 706.160156 805.71875 703.886719 801.234375 702.976562 C 795.953125 701.910156 793.097656 702.363281 788.238281 693.257812 C 779.789062 677.488281 788.398438 667.347656 792.441406 657.800781 C 799.824219 658.097656 821.285156 663.035156 827.820312 659.964844 C 831.957031 658.019531 829.277344 656.4375 830.25 654.507812 C 836.175781 654.679688 842.523438 655.136719 847.835938 655.949219 C 851.207031 656.46875 854.125 656.640625 857.507812 656.734375 C 859.953125 656.796875 864.925781 657.234375 866.210938 655.542969 C 868.230469 650.214844 860.957031 647.421875 855.707031 645.777344 C 853.136719 644.960938 849.578125 644.601562 846.285156 643.972656 C 851.269531 643.660156 857.101562 642.328125 853.839844 637.941406 C 851.617188 635.335938 848.058594 636.921875 844.46875 636.636719 C 843.949219 636.496094 843.371094 636.386719 842.742188 636.324219 C 842.367188 636.214844 841.976562 636.074219 841.613281 635.886719 C 845.40625 632.921875 853.792969 635.007812 859.078125 634.695312 C 858.96875 634.304688 858.792969 633.925781 858.589844 633.550781 C 860.222656 633.300781 861.632812 632.90625 862.777344 632.328125 C 863.953125 631.714844 865.238281 630.855469 865.628906 629.570312 C 868.089844 621.496094 854.328125 625.792969 850.21875 625.507812 C 850.410156 618.535156 865.160156 623.347656 869.734375 622.6875 C 868.011719 617.984375 863.8125 617.96875 860.191406 615.648438 C 855.785156 612.828125 857.289062 610.867188 849.65625 610.242188 C 846.945312 607.167969 842.273438 610.476562 838.101562 608.328125 C 841.722656 605.367188 849.71875 607.449219 854.765625 607.136719 C 854.296875 605.382812 852.792969 603.8125 850.675781 602.402344 C 850.707031 601.730469 850.457031 600.914062 849.78125 599.972656 C 848.058594 597.859375 845.503906 598.5 842.773438 598.671875 C 841.488281 598.21875 840.1875 597.777344 838.886719 597.386719 C 842.773438 595.222656 850.0625 597.027344 854.765625 596.714844 C 854.109375 594.238281 851.378906 592.121094 847.820312 590.347656 C 848.183594 590.253906 848.511719 590.144531 848.792969 590.019531 C 849.953125 589.488281 849.671875 589.488281 850.410156 588.859375 C 850.21875 586.148438 849.027344 584.109375 847.226562 582.574219 C 847.835938 582.449219 848.371094 582.292969 848.792969 582.105469 C 861.820312 576.039062 827.398438 572.574219 827.335938 572.558594 C 828.242188 567.871094 826.066406 563.027344 820.59375 562.605469 C 819.683594 561.429688 819.246094 561.066406 816.691406 560.394531 C 813.679688 559.59375 813.054688 560.191406 811.613281 557.964844 C 813.539062 552.902344 815.578125 556.945312 818.714844 553.527344 C 821.410156 552.148438 820.03125 553.230469 820.8125 550.722656 C 819.746094 549.328125 819.449219 548.964844 816.707031 548.246094 C 813.695312 547.445312 813.070312 548.042969 811.628906 545.816406 C 813.632812 540.53125 815.765625 545.140625 819.121094 540.910156 C 816.910156 536.441406 804.699219 536.222656 795.277344 535.125 C 792.113281 534.105469 788.429688 533.101562 785.9375 532.945312 C 785.027344 532.445312 784.398438 531.847656 784.117188 531.113281 C 790.730469 527.160156 801.265625 535.171875 807.582031 530.296875 C 806.660156 526.753906 802.582031 525.53125 798.226562 523.980469 C 794.636719 522.710938 789.101562 520.96875 785.777344 520.78125 L 781.84375 519.667969 C 784.335938 518.117188 783.867188 519.527344 785.699219 517.222656 C 785.574219 517.113281 785.386719 516.957031 785.308594 516.894531 C 785.214844 516.847656 784.996094 516.660156 784.886719 516.613281 L 781.34375 515.390625 C 780.183594 514.871094 778.820312 513.882812 777.941406 513.242188 C 781.609375 512.835938 783.789062 513.179688 785.890625 511.519531 C 784.164062 508.773438 785.953125 511.125 783.476562 509.746094 L 781.796875 508.664062 C 781.703125 508.351562 781.484375 508.320312 781.328125 508.148438 C 770.433594 508.242188 766.828125 496.71875 757.25 502.035156 C 753.785156 503.960938 750.367188 506.691406 746.527344 508.601562 C 741.871094 510.9375 738.25 510.71875 733.832031 512.742188 C 734.144531 513.335938 733.988281 515.359375 738.894531 515.875 C 742.1875 516.21875 743.582031 515.359375 745.648438 517.207031 C 744.363281 519.433594 745.507812 518.632812 742.15625 519.308594 L 731.023438 520.453125 C 727.859375 520.875 728.203125 520.25 727.59375 522.914062 C 729.003906 523.570312 728.53125 523.132812 729.675781 523.445312 L 732.703125 524.574219 C 728.988281 525.15625 721.414062 526.800781 720.789062 531.082031 C 722.9375 532.632812 725.960938 532.898438 729.082031 532.804688 C 727.984375 532.929688 728.03125 533.148438 727.59375 535.0625 C 729.003906 535.71875 728.53125 535.28125 729.675781 535.59375 L 732.703125 536.722656 C 728.988281 537.304688 721.414062 538.949219 720.789062 543.230469 C 721.621094 543.824219 722.558594 544.230469 723.578125 544.5 C 722.84375 545.140625 721.917969 545.613281 719.097656 546.019531 C 715.960938 546.472656 712.621094 546.503906 709.597656 547.085938 C 708.203125 547.351562 706.289062 547.554688 705.035156 547.898438 C 701.867188 548.761719 701.820312 549.640625 701.070312 550.707031 C 702.152344 552.773438 701.492188 551.898438 703.625 552.839844 C 707.589844 554.609375 716.460938 554.84375 726.210938 554.515625 C 724.394531 555.628906 724.035156 556.410156 723.109375 557.023438 C 716.792969 557.242188 710.945312 557.996094 706.773438 559.6875 C 706.148438 559.796875 705.535156 559.90625 705.035156 560.046875 C 701.867188 560.910156 701.820312 561.789062 701.070312 562.855469 C 701.148438 563.011719 701.226562 563.136719 701.289062 563.261719 C 692.683594 569.34375 685.613281 562.382812 684.5625 571.617188 C 688.75 573.339844 692.402344 572.308594 696.507812 571.523438 C 698.671875 571.117188 700.316406 570.816406 701.710938 570.863281 C 699 572.917969 696.429688 573.625 694.140625 573.921875 C 693.105469 573.921875 692.371094 573.96875 691.757812 574.109375 C 687.871094 574.28125 685.160156 574.09375 684.546875 579.546875 C 687.761719 580.867188 690.660156 580.566406 693.6875 580.003906 C 696.710938 580.675781 700.691406 580.457031 704.941406 579.816406 C 709.503906 582.886719 697.511719 581.835938 696.226562 581.835938 C 674.421875 581.820312 704.957031 588.6875 699.546875 590.960938 L 695.441406 592.121094 C 692.242188 592.636719 689.957031 593 686.679688 593.640625 C 682.023438 594.566406 674.21875 595.539062 674.484375 601.367188 C 678.808594 604.253906 689.4375 603.125 699.015625 601.527344 L 695.441406 602.527344 C 692.242188 603.046875 689.957031 603.40625 686.679688 604.066406 C 682.023438 604.972656 674.21875 605.960938 674.484375 611.792969 C 676.945312 613.4375 681.460938 613.769531 686.648438 613.46875 C 684.296875 614.144531 681.945312 615.195312 678.480469 617.214844 C 678.136719 617.421875 676.523438 618.375 676.128906 618.800781 C 674.71875 620.304688 675.09375 619.535156 674.578125 621.808594 C 675.582031 622.53125 674.921875 622.296875 676.585938 622.734375 C 676.664062 622.75 712.730469 624.617188 680.675781 626.183594 Z M 791.109375 623.015625 C 784.996094 624.222656 779.585938 624.617188 774.664062 624.488281 C 773.144531 623.425781 771.5 623.234375 769.679688 621.808594 L 794.382812 622.089844 C 793.820312 622.3125 793.257812 622.53125 792.675781 622.734375 C 792.160156 622.828125 791.625 622.921875 791.109375 623.015625 Z M 776.8125 667.046875 C 775.730469 662.878906 776.1875 655.246094 777.988281 652.1875 C 779.742188 652.613281 781.484375 653.472656 783.113281 654.476562 C 783.476562 658.597656 780.167969 666.59375 776.8125 667.046875 Z M 776.8125 667.046875 " fill-opacity="1" fill-rule="evenodd"/><path fill="#f1f1f1" d="M 620.875 444.914062 C 619.464844 446.449219 617.613281 446.433594 615.308594 444.898438 L 620.78125 438.941406 C 621.546875 440.429688 621.925781 441.621094 621.910156 442.5 C 621.894531 443.375 621.546875 444.175781 620.875 444.914062 M 623.601562 427.859375 C 622.832031 426.367188 622.472656 425.195312 622.519531 424.347656 C 622.566406 423.5 622.878906 422.746094 623.492188 422.089844 C 624.117188 421.414062 624.886719 421.039062 625.796875 420.992188 C 626.707031 420.945312 627.738281 421.320312 628.882812 422.105469 Z M 627.394531 450.289062 C 629.589844 447.90625 630.609375 445.320312 630.46875 442.546875 C 630.328125 439.769531 629.039062 436.449219 626.609375 432.609375 L 632.519531 426.179688 C 633.226562 427.246094 633.804688 428.390625 634.277344 429.644531 C 634.761719 430.898438 635.15625 432.199219 635.484375 433.546875 L 642.914062 431.195312 C 642.507812 429.300781 641.894531 427.496094 641.09375 425.789062 C 640.296875 424.082031 639.230469 422.402344 637.898438 420.773438 L 640.25 418.21875 L 635.828125 414.140625 L 633.554688 416.601562 C 632.097656 415.523438 630.609375 414.691406 629.105469 414.109375 C 627.597656 413.53125 626.109375 413.25 624.667969 413.25 C 623.226562 413.25 621.847656 413.546875 620.527344 414.109375 C 619.210938 414.691406 618.019531 415.570312 616.925781 416.761719 C 615.78125 418.015625 614.949219 419.285156 614.460938 420.585938 C 613.976562 421.886719 613.773438 423.234375 613.867188 424.644531 C 613.960938 426.054688 614.351562 427.542969 615.011719 429.113281 C 615.6875 430.695312 616.578125 432.402344 617.722656 434.238281 L 611.5 441.011719 C 610.464844 439.582031 609.667969 438.078125 609.101562 436.480469 C 608.539062 434.894531 608.082031 433.125 607.738281 431.179688 L 599.964844 432.984375 C 600.386719 435.367188 601.140625 437.703125 602.21875 439.976562 C 603.300781 442.25 604.648438 444.347656 606.296875 446.277344 L 602.347656 450.570312 L 606.765625 454.648438 L 610.636719 450.429688 C 612.128906 451.542969 613.632812 452.375 615.152344 452.9375 C 616.671875 453.503906 618.164062 453.785156 619.605469 453.769531 C 621.0625 453.769531 622.441406 453.488281 623.757812 452.921875 C 625.089844 452.359375 626.296875 451.480469 627.394531 450.289062 Z M 627.394531 450.289062 " fill-opacity="1" fill-rule="nonzero"/><path fill="#f1f1f1" d="M 768.035156 407.027344 C 765.964844 407.246094 764.570312 406.023438 763.863281 403.34375 L 771.90625 402.496094 C 771.5 404.125 770.996094 405.269531 770.402344 405.914062 C 769.835938 406.539062 769.039062 406.914062 768.035156 407.027344 M 781.34375 396.023438 C 781.75 394.390625 782.253906 393.261719 782.847656 392.667969 C 783.441406 392.054688 784.179688 391.710938 785.058594 391.617188 C 785.984375 391.523438 786.796875 391.757812 787.519531 392.320312 C 788.238281 392.886719 788.773438 393.84375 789.101562 395.207031 Z M 769.382812 415.363281 C 772.597656 415.019531 775.074219 413.765625 776.796875 411.585938 C 778.519531 409.410156 779.742188 406.070312 780.480469 401.585938 L 789.164062 400.660156 C 788.992188 401.914062 788.664062 403.167969 788.191406 404.421875 C 787.722656 405.675781 787.175781 406.914062 786.53125 408.136719 L 793.664062 411.273438 C 794.605469 409.582031 795.339844 407.824219 795.859375 406.007812 C 796.390625 404.1875 796.6875 402.230469 796.765625 400.128906 L 800.214844 399.769531 L 799.589844 393.796875 L 796.25 394.15625 C 795.875 392.371094 795.292969 390.769531 794.542969 389.34375 C 793.789062 387.917969 792.863281 386.726562 791.78125 385.769531 C 790.683594 384.8125 789.460938 384.125 788.097656 383.683594 C 786.734375 383.246094 785.246094 383.121094 783.632812 383.292969 C 781.9375 383.464844 780.480469 383.890625 779.257812 384.546875 C 778.035156 385.207031 776.984375 386.082031 776.136719 387.195312 C 775.292969 388.308594 774.585938 389.6875 774.054688 391.320312 C 773.503906 392.949219 773.066406 394.832031 772.707031 396.960938 L 763.566406 397.933594 C 763.722656 396.179688 764.132812 394.515625 764.757812 392.949219 C 765.386719 391.382812 766.214844 389.75 767.234375 388.058594 L 760.210938 384.265625 C 758.957031 386.335938 757.988281 388.589844 757.296875 391.003906 C 756.605469 393.417969 756.230469 395.894531 756.199219 398.417969 L 750.382812 399.03125 L 751.011719 405.003906 L 756.699219 404.40625 C 757.09375 406.226562 757.671875 407.855469 758.441406 409.28125 C 759.210938 410.710938 760.148438 411.902344 761.230469 412.855469 C 762.3125 413.8125 763.550781 414.503906 764.914062 414.957031 C 766.292969 415.394531 767.785156 415.539062 769.382812 415.363281 Z M 769.382812 415.363281 " fill-opacity="1" fill-rule="nonzero"/><path fill="#f1f1f1" d="M 867.980469 456.527344 C 865.988281 455.917969 865.207031 454.238281 865.597656 451.496094 L 873.324219 453.894531 C 872.308594 455.226562 871.398438 456.074219 870.597656 456.433594 C 869.816406 456.796875 868.9375 456.828125 867.980469 456.527344 M 884.550781 451.683594 C 885.566406 450.335938 886.460938 449.523438 887.261719 449.191406 C 888.046875 448.878906 888.859375 448.847656 889.707031 449.097656 C 890.585938 449.363281 891.242188 449.914062 891.683594 450.710938 C 892.121094 451.511719 892.214844 452.609375 891.996094 453.988281 Z M 865.910156 464.726562 C 869 465.683594 871.773438 465.511719 874.21875 464.195312 C 876.664062 462.878906 879.109375 460.289062 881.554688 456.449219 L 889.894531 459.035156 C 889.238281 460.117188 888.4375 461.152344 887.527344 462.109375 C 886.601562 463.082031 885.601562 463.988281 884.519531 464.867188 L 889.832031 470.574219 C 891.367188 469.398438 892.730469 468.066406 893.9375 466.609375 C 895.128906 465.132812 896.195312 463.472656 897.105469 461.558594 L 900.414062 462.59375 L 902.183594 456.859375 L 898.988281 455.871094 C 899.332031 454.082031 899.457031 452.390625 899.316406 450.777344 C 899.191406 449.160156 898.8125 447.703125 898.1875 446.402344 C 897.558594 445.101562 896.714844 443.972656 895.632812 443.03125 C 894.550781 442.089844 893.25 441.386719 891.699219 440.898438 C 890.082031 440.398438 888.578125 440.210938 887.183594 440.320312 C 885.789062 440.429688 884.488281 440.835938 883.265625 441.527344 C 882.042969 442.21875 880.851562 443.203125 879.722656 444.488281 C 878.578125 445.757812 877.417969 447.3125 876.257812 449.128906 L 867.480469 446.417969 C 868.324219 444.867188 869.34375 443.488281 870.535156 442.3125 C 871.726562 441.121094 873.136719 439.960938 874.738281 438.800781 L 869.785156 432.546875 C 867.808594 433.957031 866.035156 435.632812 864.4375 437.578125 C 862.839844 439.519531 861.539062 441.652344 860.503906 443.941406 L 854.921875 442.21875 L 853.136719 447.953125 L 858.605469 449.648438 C 858.246094 451.464844 858.136719 453.191406 858.277344 454.804688 C 858.417969 456.417969 858.808594 457.875 859.4375 459.191406 C 860.066406 460.496094 860.910156 461.621094 861.992188 462.578125 C 863.058594 463.535156 864.375 464.257812 865.910156 464.726562 Z M 865.910156 464.726562 " fill-opacity="1" fill-rule="nonzero"/><g clip-path="url(#13c035ae8b)"><g clip-path="url(#8e7e440c0b)"><g transform="matrix(1, 0, 0, 1, 582, 396)"><g clip-path="url(#2565b8e076)"><g clip-path="url(#aab84a1581)"><g clip-path="url(#2b4aa6417f)"><path fill="#cdcde4" d="M 41.222656 0.792969 L 77.378906 36.953125 L 36.417969 77.910156 L 0.261719 41.753906 Z M 41.222656 0.792969 " fill-opacity="1" fill-rule="nonzero"/></g></g></g></g></g></g><g transform="matrix(1, 0, 0, 1, 499, 833)"><g clip-path="url(#92ff249312)"><g fill="#14162c" fill-opacity="1"><g transform="translate(1.828934, 143.963228)"><g><path d="M 30.71875 1.015625 C 20.8125 1.015625 13.660156 -1.4375 9.265625 -6.34375 C 4.867188 -11.25 2.671875 -19.160156 2.671875 -30.078125 L 2.671875 -40.734375 L 24.109375 -40.734375 L 24.109375 -27.15625 C 24.109375 -21.738281 25.84375 -19.03125 29.3125 -19.03125 C 31.257812 -19.03125 32.613281 -19.601562 33.375 -20.75 C 34.132812 -21.894531 34.515625 -23.820312 34.515625 -26.53125 C 34.515625 -30.082031 34.09375 -33.019531 33.25 -35.34375 C 32.40625 -37.675781 31.328125 -39.625 30.015625 -41.1875 C 28.703125 -42.75 26.351562 -45.179688 22.96875 -48.484375 L 13.578125 -57.875 C 6.304688 -64.976562 2.671875 -72.847656 2.671875 -81.484375 C 2.671875 -90.785156 4.804688 -97.867188 9.078125 -102.734375 C 13.347656 -107.609375 19.585938 -110.046875 27.796875 -110.046875 C 37.609375 -110.046875 44.671875 -107.441406 48.984375 -102.234375 C 53.304688 -97.035156 55.46875 -88.890625 55.46875 -77.796875 L 33.25 -77.796875 L 33.125 -85.296875 C 33.125 -86.734375 32.722656 -87.875 31.921875 -88.71875 C 31.117188 -89.5625 30 -89.984375 28.5625 -89.984375 C 26.863281 -89.984375 25.59375 -89.519531 24.75 -88.59375 C 23.90625 -87.664062 23.484375 -86.394531 23.484375 -84.78125 C 23.484375 -81.226562 25.515625 -77.546875 29.578125 -73.734375 L 42.265625 -61.5625 C 45.222656 -58.675781 47.675781 -55.941406 49.625 -53.359375 C 51.570312 -50.785156 53.132812 -47.742188 54.3125 -44.234375 C 55.5 -40.722656 56.09375 -36.554688 56.09375 -31.734375 C 56.09375 -20.984375 54.125 -12.835938 50.1875 -7.296875 C 46.257812 -1.753906 39.769531 1.015625 30.71875 1.015625 Z M 30.71875 1.015625 "/></g></g></g><g fill="#14162c" fill-opacity="1"><g transform="translate(83.431857, 143.963228)"><g><path d="M 4.828125 0 L 4.828125 -109.03125 L 26.53125 -109.03125 L 26.53125 -70.0625 L 36.8125 -70.0625 L 36.8125 -109.03125 L 58.515625 -109.03125 L 58.515625 0 L 36.8125 0 L 36.8125 -49.5 L 26.53125 -49.5 L 26.53125 0 Z M 4.828125 0 "/></g></g></g><g fill="#14162c" fill-opacity="1"><g transform="translate(169.856736, 143.963228)"><g><path d="M 3.8125 0 L 3.8125 -109.03125 L 24.875 -109.03125 L 24.875 0 Z M 3.8125 0 "/></g></g></g><g fill="#14162c" fill-opacity="1"><g transform="translate(221.766704, 143.963228)"><g><path d="M 14.84375 0 L 1.390625 -109.15625 L 22.21875 -109.15625 L 30.203125 -34.90625 L 37.3125 -109.15625 L 58.125 -109.15625 L 44.671875 0 Z M 14.84375 0 "/></g></g></g><g fill="#14162c" fill-opacity="1"><g transform="translate(304.38477, 143.963228)"><g><path d="M 1.90625 0 L 12.4375 -109.03125 L 49.375 -109.03125 L 59.78125 0 L 39.09375 0 L 37.5625 -17.640625 L 24.375 -17.640625 L 23.09375 0 Z M 26.015625 -35.03125 L 35.921875 -35.03125 L 31.09375 -90.5 L 30.078125 -90.5 Z M 26.015625 -35.03125 "/></g></g></g><g fill="#14162c" fill-opacity="1"><g transform="translate(389.033127, 143.963228)"><g><path d="M 29.0625 1.015625 C 24.070312 1.015625 19.546875 0.0390625 15.484375 -1.90625 C 11.421875 -3.851562 8.222656 -6.707031 5.890625 -10.46875 C 3.566406 -14.238281 2.40625 -18.785156 2.40625 -24.109375 L 2.40625 -51.40625 L 23.859375 -51.40625 L 23.859375 -25.390625 C 23.859375 -23.441406 24.257812 -21.894531 25.0625 -20.75 C 25.863281 -19.601562 27.113281 -19.03125 28.8125 -19.03125 C 30.414062 -19.03125 31.617188 -19.5625 32.421875 -20.625 C 33.234375 -21.6875 33.640625 -23.1875 33.640625 -25.125 L 33.640625 -109.03125 L 55.59375 -109.03125 L 55.59375 -27.28125 C 55.59375 -21.613281 54.46875 -16.644531 52.21875 -12.375 C 49.976562 -8.101562 46.847656 -4.800781 42.828125 -2.46875 C 38.816406 -0.144531 34.226562 1.015625 29.0625 1.015625 Z M 29.0625 1.015625 "/></g></g></g><g fill="#14162c" fill-opacity="1"><g transform="translate(471.270545, 143.963228)"><g><path d="M 3.8125 0 L 3.8125 -109.03125 L 24.875 -109.03125 L 24.875 0 Z M 3.8125 0 "/></g></g></g></g></g><g transform="matrix(1, 0, 0, 1, 607, 971)"><g clip-path="url(#14b6dfc6b3)"><g fill="#14162c" fill-opacity="1"><g transform="translate(2.08766, 90.712759)"><g><path d="M 4.546875 -61.40625 L 31.078125 -61.40625 L 31.078125 -52.234375 L 18.125 -52.234375 L 18.125 -36.765625 L 29.421875 -36.765625 L 29.421875 -27.296875 L 18.125 -27.296875 L 18.125 0 L 4.546875 0 Z M 4.546875 -61.40625 "/></g></g></g><g fill="#14162c" fill-opacity="1"><g transform="translate(38.772919, 90.712759)"><g><path d="M 4.625 -61.40625 L 18.1875 -61.40625 L 18.1875 0 L 4.625 0 Z M 4.625 -61.40625 "/></g></g></g><g fill="#14162c" fill-opacity="1"><g transform="translate(65.377898, 90.712759)"><g><path d="M 4.546875 -61.40625 L 14.09375 -61.40625 L 26.6875 -31.84375 L 26.6875 -61.40625 L 37.90625 -61.40625 L 37.90625 0 L 28.734375 0 L 16.140625 -31.84375 L 16.140625 0 L 4.546875 0 Z M 4.546875 -61.40625 "/></g></g></g><g fill="#14162c" fill-opacity="1"><g transform="translate(111.688635, 90.712759)"><g><path d="M 13.1875 -61.40625 L 28.65625 -61.40625 L 40.109375 0 L 27.59375 0 L 25.546875 -12.96875 L 16.53125 -12.96875 L 14.40625 0 L 1.59375 0 Z M 24.265625 -21.078125 L 21 -45.03125 L 17.734375 -21.078125 Z M 24.265625 -21.078125 "/></g></g></g><g fill="#14162c" fill-opacity="1"><g transform="translate(157.24148, 90.712759)"><g><path d="M 4.546875 -61.40625 L 14.09375 -61.40625 L 26.6875 -31.84375 L 26.6875 -61.40625 L 37.90625 -61.40625 L 37.90625 0 L 28.734375 0 L 16.140625 -31.84375 L 16.140625 0 L 4.546875 0 Z M 4.546875 -61.40625 "/></g></g></g><g fill="#14162c" fill-opacity="1"><g transform="translate(203.552218, 90.712759)"><g><path d="M 22.140625 0.90625 C 15.460938 0.90625 10.722656 -0.847656 7.921875 -4.359375 C 5.117188 -7.867188 3.71875 -12.9375 3.71875 -19.5625 L 3.71875 -41.703125 C 3.71875 -48.472656 5.101562 -53.585938 7.875 -57.046875 C 10.65625 -60.503906 15.410156 -62.234375 22.140625 -62.234375 C 28.554688 -62.234375 33.101562 -60.691406 35.78125 -57.609375 C 38.457031 -54.535156 39.796875 -50.164062 39.796875 -44.5 L 39.796875 -39.1875 L 26.53125 -39.1875 L 26.53125 -45.328125 C 26.53125 -47.710938 26.273438 -49.535156 25.765625 -50.796875 C 25.265625 -52.054688 24.054688 -52.6875 22.140625 -52.6875 C 20.210938 -52.6875 18.945312 -52.015625 18.34375 -50.671875 C 17.738281 -49.335938 17.4375 -47.484375 17.4375 -45.109375 L 17.4375 -16.21875 C 17.4375 -13.789062 17.75 -11.929688 18.375 -10.640625 C 19.007812 -9.359375 20.265625 -8.71875 22.140625 -8.71875 C 24.003906 -8.71875 25.203125 -9.359375 25.734375 -10.640625 C 26.265625 -11.929688 26.53125 -13.789062 26.53125 -16.21875 L 26.53125 -22.671875 L 39.796875 -22.671875 L 39.796875 -17.359375 C 39.796875 -11.597656 38.457031 -7.113281 35.78125 -3.90625 C 33.101562 -0.695312 28.554688 0.90625 22.140625 0.90625 Z M 22.140625 0.90625 "/></g></g></g><g fill="#14162c" fill-opacity="1"><g transform="translate(250.014543, 90.712759)"><g><path d="M 4.546875 -61.40625 L 32.140625 -61.40625 L 32.140625 -52.15625 L 18.125 -52.15625 L 18.125 -36.921875 L 28.8125 -36.921875 L 28.8125 -27.515625 L 18.125 -27.515625 L 18.125 -9.171875 L 32.296875 -9.171875 L 32.296875 0 L 4.546875 0 Z M 4.546875 -61.40625 "/></g></g></g></g></g><g clip-path="url(#abda8531f5)"><g clip-path="url(#ea88154af1)"><g transform="matrix(1, 0, 0, 1, 734, 358)"><g clip-path="url(#12a3af724d)"><g clip-path="url(#b1202406e1)"><g clip-path="url(#77fb0a87fc)"><path fill="#cdcde4" d="M 41.113281 0.214844 L 77.269531 36.371094 L 36.3125 77.332031 L 0.152344 41.175781 Z M 41.113281 0.214844 " fill-opacity="1" fill-rule="nonzero"/></g></g></g></g></g></g><g clip-path="url(#dace71f17e)"><g clip-path="url(#7da6e3d2ac)"><g transform="matrix(1, 0, 0, 1, 842, 415)"><g clip-path="url(#5adcb9d4c4)"><g clip-path="url(#27dc9b058d)"><g clip-path="url(#fc0b7f66c7)"><path fill="#cdcde4" d="M 23.011719 0.710938 L 70.265625 20.253906 L 48.125 73.78125 L 0.871094 54.238281 Z M 23.011719 0.710938 " fill-opacity="1" fill-rule="nonzero"/></g></g></g></g></g></g><g transform="matrix(1, 0, 0, 1, 606, 373)"><g clip-path="url(#0118bfb533)"><g fill="#14162c" fill-opacity="1"><g transform="translate(14.83318, 33.278801)"><g><path d="M 8.453125 12.296875 L 17.640625 -6.796875 L 19.65625 -8.1875 L 20.34375 -7.171875 C 22.007812 -4.753906 23.644531 -3.128906 25.25 -2.296875 C 26.851562 -1.472656 28.65625 -1.582031 30.65625 -2.625 L 24.53125 -11.53125 L 27.453125 -13.546875 L 33.53125 -4.703125 C 35.03125 -6.179688 35.71875 -7.832031 35.59375 -9.65625 C 35.476562 -11.476562 34.617188 -13.550781 33.015625 -15.875 L 32.328125 -16.890625 L 35.265625 -18.921875 L 48.328125 0.0625 L 45.390625 2.09375 L 39.421875 -6.578125 C 39.234375 -4.285156 38.207031 -2.296875 36.34375 -0.609375 L 40.515625 5.4375 L 37.59375 7.453125 L 33.484375 1.5 C 31.066406 2.84375 28.734375 3.191406 26.484375 2.546875 C 24.242188 1.898438 22.117188 0.472656 20.109375 -1.734375 L 11.6875 16.984375 Z M 8.453125 12.296875 "/></g></g></g></g></g><g transform="matrix(1, 0, 0, 1, 737, 378)"><g clip-path="url(#d68d417e2f)"><g fill="#14162c" fill-opacity="1"><g transform="translate(17.886157, 7.611485)"><g><path d="M 1.921875 14.796875 L 18.78125 2 L 21.21875 1.6875 L 21.390625 2.890625 C 21.765625 5.804688 22.476562 8 23.53125 9.46875 C 24.582031 10.9375 26.234375 11.65625 28.484375 11.625 L 27.078125 0.921875 L 30.609375 0.453125 L 32 11.09375 C 34.007812 10.46875 35.375 9.3125 36.09375 7.625 C 36.820312 5.945312 37.003906 3.707031 36.640625 0.90625 L 36.46875 -0.296875 L 40 -0.765625 L 42.984375 22.078125 L 39.453125 22.546875 L 38.09375 12.109375 C 36.882812 14.066406 35.066406 15.367188 32.640625 16.015625 L 33.59375 23.296875 L 30.0625 23.765625 L 29.125 16.59375 C 26.363281 16.6875 24.128906 15.9375 22.421875 14.34375 C 20.710938 12.75 19.46875 10.507812 18.6875 7.625 L 2.65625 20.4375 Z M 1.921875 14.796875 "/></g></g></g></g></g><g transform="matrix(1, 0, 0, 1, 837, 423)"><g clip-path="url(#dc0714e1a7)"><g fill="#14162c" fill-opacity="1"><g transform="translate(26.307858, 6.195771)"><g><path d="M -4.5625 13.734375 L 15.5625 9.65625 L 17.828125 10.40625 L 17.453125 11.53125 C 16.554688 14.226562 16.253906 16.441406 16.546875 18.171875 C 16.847656 19.898438 17.988281 21.226562 19.96875 22.15625 L 23.265625 12.21875 L 26.53125 13.296875 L 23.25 23.1875 C 25.28125 23.476562 26.960938 23.039062 28.296875 21.875 C 29.628906 20.71875 30.726562 18.835938 31.59375 16.234375 L 31.96875 15.109375 L 35.25 16.1875 L 28.203125 37.40625 L 24.921875 36.328125 L 28.140625 26.640625 C 26.265625 27.835938 24.128906 28.207031 21.734375 27.75 L 19.484375 34.515625 L 16.21875 33.4375 L 18.4375 26.78125 C 15.988281 25.6875 14.351562 24.082031 13.53125 21.96875 C 12.71875 19.863281 12.578125 17.382812 13.109375 14.53125 L -6.296875 18.96875 Z M -4.5625 13.734375 "/></g></g></g></g></g></svg>